<svg xmlns="http://www.w3.org/2000/svg" xmlns:xlink="http://www.w3.org/1999/xlink" viewBox="0 0 128 128" fill="#FF7A5B">
  <path d="M14 1C6.8 1 1 6.8 1 14L1 28L1 114C1 121.2 6.8 127 14 127L114 127C121.2 127 127 121.2 127 114L127 14C127 6.8 121.2 1 114 1L14 1 z M 14 7L114 7C117.9 7 121 10.1 121 14L121 29L7 29L7 14C7 10.1 10.1 7 14 7 z M 18 15C16.3 15 15 16.3 15 18C15 19.7 16.3 21 18 21L22 21C23.7 21 25 19.7 25 18C25 16.3 23.7 15 22 15L18 15 z M 34 15C32.3 15 31 16.3 31 18C31 19.7 32.3 21 34 21L38 21C39.7 21 41 19.7 41 18C41 16.3 39.7 15 38 15L34 15 z M 7 35L121 35L121 114C121 117.9 117.9 121 114 121L14 121C10.1 121 7 117.9 7 114L7 35 z M 64 54.5C57.9 54.5 53 59.4 53 65.5L53 86.5C53 92.6 57.9 97.5 64 97.5C70.1 97.5 75 92.6 75 86.5L75 65.5C75 59.4 70.1 54.5 64 54.5 z M 42.179688 54.529297C40.983398 54.45957 39.913281 55.049609 39.300781 56.099609L25.300781 82.099609C25.100781 82.499609 25 83 25 83.5L25 87.5C25 89.2 26.3 90.5 28 90.5L39 90.5L39 94.5C39 96.2 40.3 97.5 42 97.5C43.7 97.5 45 96.2 45 94.5L45 90.5C46.7 90.5 48 89.2 48 87.5C48 85.8 46.7 84.5 45 84.5L45 57.5C45 56.1 44.099219 54.899609 42.699219 54.599609C42.524219 54.562109 42.350586 54.539258 42.179688 54.529297 z M 97.208984 54.529297C96.060547 54.45957 94.913281 55.049609 94.300781 56.099609L80.300781 82.099609C80.100781 82.499609 80 83 80 83.5L80 87.5C80 89.2 81.3 90.5 83 90.5L94 90.5L94 94.5C94 96.2 95.3 97.5 97 97.5C98.7 97.5 100 96.2 100 94.5L100 90.5C101.7 90.5 103 89.2 103 87.5C103 85.8 101.7 84.5 100 84.5L100 57.5C100 56.1 99.099219 54.899609 97.699219 54.599609C97.536719 54.562109 97.373047 54.539258 97.208984 54.529297 z M 64 60.5C66.8 60.5 69 62.7 69 65.5L69 86.5C69 89.3 66.8 91.5 64 91.5C61.2 91.5 59 89.3 59 86.5L59 65.5C59 62.7 61.2 60.5 64 60.5 z M 39 69.400391L39 84.5L31 84.5L31 84.300781L39 69.400391 z M 94 69.400391L94 84.5L86 84.5L86 84.300781L94 69.400391 z" fill="#FF7A5B" />
</svg>